<svg width="30" height="30" viewBox="0 0 30 30" fill="none" xmlns="http://www.w3.org/2000/svg">
<path d="M19.1681 23.1343C19.2533 23.2188 19.3209 23.319 19.3669 23.4294C19.413 23.5397 19.4368 23.658 19.4368 23.7775C19.4368 23.8969 19.413 24.0152 19.3669 24.1255C19.3209 24.2359 19.2533 24.3362 19.1681 24.4206C19.083 24.5051 18.9819 24.5721 18.8706 24.6178C18.7594 24.6635 18.6401 24.687 18.5197 24.687C18.3992 24.687 18.28 24.6635 18.1687 24.6178C18.0575 24.5721 17.9564 24.5051 17.8712 24.4206L8.70557 15.3302C8.62035 15.2457 8.55274 15.1455 8.50662 15.0351C8.46049 14.9248 8.43675 14.8065 8.43675 14.687C8.43675 14.5675 8.46049 14.4493 8.50662 14.3389C8.55274 14.2285 8.62035 14.1283 8.70557 14.0439L17.8712 4.95341C18.0432 4.78284 18.2765 4.68701 18.5197 4.68701C18.7629 4.68701 18.9962 4.78284 19.1681 4.95341C19.3401 5.12399 19.4368 5.35533 19.4368 5.59656C19.4368 5.83779 19.3401 6.06914 19.1681 6.23971L10.6498 14.687L19.1681 23.1343Z" fill="white"/>
</svg>
